<svg width="1400" height="33" viewBox="0 0 1400 33" fill="none" xmlns="http://www.w3.org/2000/svg">
<path d="M1248.7 32L1043.48 32M1243.83 24.3478V10.4348M1236.87 24.3478V10.4348M1229.91 24.3478V10.4348M1222.96 24.3478V10.4348M1216 24.3478V0M1209.04 24.3478V10.4348M1202.09 24.3478V10.4348M1195.13 24.3478V10.4348M1188.17 24.3478V10.4348M1181.22 24.3478V0M1174.26 24.3478V10.4348M1167.3 24.3478V10.4348M1160.35 24.3478V10.4348M1153.39 24.3478V10.4348M1146.43 24.3478V0M1139.48 24.3478V10.4348M1132.52 24.3478V10.4348M1125.57 24.3478V10.4348M1118.61 24.3478V10.4348M1111.65 24.3478V0M1104.7 24.3478V10.4348M1097.74 24.3478V10.4348M1090.78 24.3478V10.4348M1083.83 24.3478V10.4348M1076.87 24.3478V0M1069.91 24.3478V10.4348M1062.96 24.3478V10.4348M1056 24.3478V10.4348M1049.04 24.3478V10.4348" stroke="white" stroke-width="2"/>
<path d="M1074.78 32L869.565 32M1069.91 24.3478V10.4348M1062.96 24.3478V10.4348M1056 24.3478V10.4348M1049.04 24.3478V10.4348M1042.09 24.3478V0M1035.13 24.3478V10.4348M1028.17 24.3478V10.4348M1021.22 24.3478V10.4348M1014.26 24.3478V10.4348M1007.3 24.3478V0M1000.35 24.3478V10.4348M993.391 24.3478V10.4348M986.435 24.3478V10.4348M979.478 24.3478V10.4348M972.522 24.3478V0M965.565 24.3478V10.4348M958.609 24.3478V10.4348M951.652 24.3478V10.4348M944.696 24.3478V10.4348M937.739 24.3478V0M930.783 24.3478V10.4348M923.826 24.3478V10.4348M916.87 24.3478V10.4348M909.913 24.3478V10.4348M902.957 24.3478V0M896 24.3478V10.4348M889.044 24.3478V10.4348M882.087 24.3478V10.4348M875.131 24.3478V10.4348" stroke="white" stroke-width="2"/>
<path d="M900.869 32L695.652 32M896 24.3478V10.4348M889.043 24.3478V10.4348M882.087 24.3478V10.4348M875.13 24.3478V10.4348M868.174 24.3478V0M861.217 24.3478V10.4348M854.261 24.3478V10.4348M847.304 24.3478V10.4348M840.348 24.3478V10.4348M833.391 24.3478V0M826.435 24.3478V10.4348M819.478 24.3478V10.4348M812.522 24.3478V10.4348M805.565 24.3478V10.4348M798.609 24.3478V0M791.652 24.3478V10.4348M784.695 24.3478V10.4348M777.739 24.3478V10.4348M770.782 24.3478V10.4348M763.826 24.3478V0M756.869 24.3478V10.4348M749.913 24.3478V10.4348M742.956 24.3478V10.4348M736 24.3478V10.4348M729.043 24.3478V0M722.087 24.3478V10.4348M715.13 24.3478V10.4348M708.174 24.3478V10.4348M701.217 24.3478V10.4348" stroke="white" stroke-width="2"/>
<path d="M726.957 32L521.739 32M722.087 24.3478V10.4348M715.13 24.3478V10.4348M708.174 24.3478V10.4348M701.217 24.3478V10.4348M694.261 24.3478V0M687.304 24.3478V10.4348M680.348 24.3478V10.4348M673.391 24.3478V10.4348M666.435 24.3478V10.4348M659.478 24.3478V0M652.522 24.3478V10.4348M645.565 24.3478V10.4348M638.609 24.3478V10.4348M631.652 24.3478V10.4348M624.696 24.3478V0M617.739 24.3478V10.4348M610.783 24.3478V10.4348M603.826 24.3478V10.4348M596.87 24.3478V10.4348M589.913 24.3478V0M582.957 24.3478V10.4348M576 24.3478V10.4348M569.043 24.3478V10.4348M562.087 24.3478V10.4348M555.13 24.3478V0M548.174 24.3478V10.4348M541.217 24.3478V10.4348M534.261 24.3478V10.4348M527.304 24.3478V10.4348" stroke="white" stroke-width="2"/>
<path d="M553.043 32L347.826 32M548.174 24.3478V10.4348M541.217 24.3478V10.4348M534.261 24.3478V10.4348M527.304 24.3478V10.4348M520.348 24.3478V0M513.391 24.3478V10.4348M506.435 24.3478V10.4348M499.478 24.3478V10.4348M492.522 24.3478V10.4348M485.565 24.3478V0M478.609 24.3478V10.4348M471.652 24.3478V10.4348M464.696 24.3478V10.4348M457.739 24.3478V10.4348M450.783 24.3478V0M443.826 24.3478V10.4348M436.87 24.3478V10.4348M429.913 24.3478V10.4348M422.956 24.3478V10.4348M416 24.3478V0M409.043 24.3478V10.4348M402.087 24.3478V10.4348M395.13 24.3478V10.4348M388.174 24.3478V10.4348M381.217 24.3478V0M374.261 24.3478V10.4348M367.304 24.3478V10.4348M360.348 24.3478V10.4348M353.391 24.3478V10.4348" stroke="white" stroke-width="2"/>
<path d="M379.131 32L173.913 32M374.261 24.3478V10.4348M367.305 24.3478V10.4348M360.348 24.3478V10.4348M353.391 24.3478V10.4348M346.435 24.3478V0M339.478 24.3478V10.4348M332.522 24.3478V10.4348M325.565 24.3478V10.4348M318.609 24.3478V10.4348M311.652 24.3478V0M304.696 24.3478V10.4348M297.739 24.3478V10.4348M290.783 24.3478V10.4348M283.826 24.3478V10.4348M276.87 24.3478V0M269.913 24.3478V10.4348M262.957 24.3478V10.4348M256 24.3478V10.4348M249.044 24.3478V10.4348M242.087 24.3478V0M235.131 24.3478V10.4348M228.174 24.3478V10.4348M221.218 24.3478V10.4348M214.261 24.3478V10.4348M207.305 24.3478V0M200.348 24.3478V10.4348M193.391 24.3478V10.4348M186.435 24.3478V10.4348M179.478 24.3478V10.4348" stroke="white" stroke-width="2"/>
<path d="M1596.52 32L1391.3 32M1591.65 24.3478V10.4348M1584.7 24.3478V10.4348M1577.74 24.3478V10.4348M1570.78 24.3478V10.4348M1563.83 24.3478V0M1556.87 24.3478V10.4348M1549.91 24.3478V10.4348M1542.96 24.3478V10.4348M1536 24.3478V10.4348M1529.04 24.3478V0M1522.09 24.3478V10.4348M1515.13 24.3478V10.4348M1508.17 24.3478V10.4348M1501.22 24.3478V10.4348M1494.26 24.3478V0M1487.3 24.3478V10.4348M1480.35 24.3478V10.4348M1473.39 24.3478V10.4348M1466.43 24.3478V10.4348M1459.48 24.3478V0M1452.52 24.3478V10.4348M1445.57 24.3478V10.4348M1438.61 24.3478V10.4348M1431.65 24.3478V10.4348M1424.7 24.3478V0M1417.74 24.3478V10.4348M1410.78 24.3478V10.4348M1403.83 24.3478V10.4348M1396.87 24.3478V10.4348" stroke="white" stroke-width="2"/>
<path d="M1422.61 32L1217.39 32M1417.74 24.3478V10.4348M1410.78 24.3478V10.4348M1403.83 24.3478V10.4348M1396.87 24.3478V10.4348M1389.91 24.3478V0M1382.96 24.3478V10.4348M1376 24.3478V10.4348M1369.04 24.3478V10.4348M1362.09 24.3478V10.4348M1355.13 24.3478V0M1348.17 24.3478V10.4348M1341.22 24.3478V10.4348M1334.26 24.3478V10.4348M1327.3 24.3478V10.4348M1320.35 24.3478V0M1313.39 24.3478V10.4348M1306.43 24.3478V10.4348M1299.48 24.3478V10.4348M1292.52 24.3478V10.4348M1285.57 24.3478V0M1278.61 24.3478V10.4348M1271.65 24.3478V10.4348M1264.7 24.3478V10.4348M1257.74 24.3478V10.4348M1250.78 24.3478V0M1243.83 24.3478V10.4348M1236.87 24.3478V10.4348M1229.91 24.3478V10.4348M1222.96 24.3478V10.4348" stroke="white" stroke-width="2"/>
<path d="M379.131 32L173.913 32M374.261 24.3478V10.4348M367.305 24.3478V10.4348M360.348 24.3478V10.4348M353.391 24.3478V10.4348M346.435 24.3478V0M339.478 24.3478V10.4348M332.522 24.3478V10.4348M325.565 24.3478V10.4348M318.609 24.3478V10.4348M311.652 24.3478V0M304.696 24.3478V10.4348M297.739 24.3478V10.4348M290.783 24.3478V10.4348M283.826 24.3478V10.4348M276.87 24.3478V0M269.913 24.3478V10.4348M262.957 24.3478V10.4348M256 24.3478V10.4348M249.044 24.3478V10.4348M242.087 24.3478V0M235.131 24.3478V10.4348M228.174 24.3478V10.4348M221.218 24.3478V10.4348M214.261 24.3478V10.4348M207.305 24.3478V0M200.348 24.3478V10.4348M193.391 24.3478V10.4348M186.435 24.3478V10.4348M179.478 24.3478V10.4348" stroke="white" stroke-width="2"/>
<path d="M205.217 32L-0.000109971 32M200.348 24.3478V10.4348M193.391 24.3478V10.4348M186.435 24.3478V10.4348M179.478 24.3478V10.4348M172.522 24.3478V0M165.565 24.3478V10.4348M158.609 24.3478V10.4348M151.652 24.3478V10.4348M144.696 24.3478V10.4348M137.739 24.3478V0M130.783 24.3478V10.4348M123.826 24.3478V10.4348M116.869 24.3478V10.4348M109.913 24.3478V10.4348M102.956 24.3478V0M95.9999 24.3478V10.4348M89.0434 24.3478V10.4348M82.0868 24.3478V10.4348M75.1303 24.3478V10.4348M68.1738 24.3478V0M61.2173 24.3478V10.4348M54.2608 24.3478V10.4348M47.3042 24.3478V10.4348M40.3477 24.3478V10.4348M33.3912 24.3478V0M26.4347 24.3478V10.4348M19.4782 24.3478V10.4348M12.5216 24.3478V10.4348M5.56511 24.3478V10.4348" stroke="white" stroke-width="2"/>
</svg>
