<svg width="200" height="49" viewBox="0 0 200 49" fill="none" xmlns="http://www.w3.org/2000/svg">
<rect x="152.278" y="6.44824" width="47.7216" height="6.03247" fill="white"/>
<path d="M155.633 31.8062L183.467 7.90464L188.435 12.1702L166.394 31.0973L160.601 36.0718L155.633 31.8062Z" fill="white"/>
<rect width="1.16629" height="6.54757" transform="matrix(0.758667 -0.651478 0.758667 0.651478 149.611 36.9209)" fill="white"/>
<rect width="1.16629" height="6.54757" transform="matrix(0.758667 -0.651478 0.758667 0.651478 152.964 34.042)" fill="white"/>
<rect width="1.16629" height="5.23806" transform="matrix(-0.758667 -0.651478 0.758667 -0.651478 150.759 37.4541)" fill="white"/>
<rect width="1.16629" height="5.23806" transform="matrix(-0.758667 -0.651478 0.758667 -0.651478 154.842 40.96)" fill="white"/>
<path d="M180.652 48.7866V8.01086e-05H188.222V38.6331V48.7866H180.652Z" fill="white"/>
<path d="M71.5535 47.0444L81.0602 16.5776L88.5415 18.299L81.0133 42.425L79.0348 48.7658L71.5535 47.0444Z" fill="white"/>
<path d="M109.855 9.40332L126.709 46.3617L119.497 48.7868L106.151 19.5202L102.643 11.8284L109.855 9.40332Z" fill="white"/>
<path d="M121.873 2.75244L126.88 13.7317L119.668 16.1568L115.703 7.46255L114.661 5.17752L121.873 2.75244Z" fill="white"/>
<path d="M131.755 0L136.762 10.9793L129.55 13.4044L125.585 4.71011L124.543 2.42508L131.755 0Z" fill="white"/>
<path d="M83.0063 13.2041L83.3746 12.0624L90.8388 13.8378L90.4705 14.9795L83.0063 13.2041Z" fill="white"/>
<rect width="1.19964" height="7.67242" transform="matrix(0.30699 -0.951713 0.972858 0.231401 84.0347 10.0195)" fill="white"/>
<rect width="1.36665" height="5.74563" transform="matrix(-0.972858 -0.231401 0.30699 -0.951713 83.9663 14.6626)" fill="white"/>
<rect width="1.36665" height="5.74563" transform="matrix(-0.972858 -0.231401 0.30699 -0.951713 90.1018 16.1216)" fill="white"/>
<rect width="1.36665" height="3.85146" transform="matrix(-0.972858 -0.231401 0.30699 -0.951713 87.6047 13.5864)" fill="white"/>
<rect width="1.19875" height="7.6768" transform="matrix(0.297871 -0.954606 0.974536 0.224233 86.5024 2.75)" fill="white"/>
<rect width="1.19875" height="7.6768" transform="matrix(0.297871 -0.954606 0.974536 0.224233 85.1497 7.08643)" fill="white"/>
<rect width="1.36743" height="5.74137" transform="matrix(-0.974536 -0.224233 0.297871 -0.954606 86.4817 7.39258)" fill="white"/>
<rect width="1.36743" height="5.74137" transform="matrix(-0.974536 -0.224233 0.297871 -0.954606 89.5452 8.09717)" fill="white"/>
<path d="M6.82251 46.9146L21.6315 1.55437L29.4076 3.42637L17.6806 39.3461L14.5985 48.7866L6.82251 46.9146Z" fill="white"/>
<rect width="25.0019" height="7.52698" transform="matrix(0.758667 -0.651478 0.758667 0.651478 34.3125 16.2886)" fill="white"/>
<rect x="10.7212" width="42.607" height="6.93483" fill="white"/>
<rect x="5.45117" width="1.43851" height="6.93483" fill="white"/>
<rect width="1.43851" height="6.93483" fill="white"/>
<rect y="1.23535" width="1.23527" height="6.8897" transform="rotate(-90 0 1.23535)" fill="white"/>
<rect y="4.07471" width="1.23527" height="6.8897" transform="rotate(-90 0 4.07471)" fill="white"/>
</svg>
