<svg width="2591" height="632" viewBox="0 0 2591 632" fill="none" xmlns="http://www.w3.org/2000/svg">
<rect x="1972.67" y="83.5364" width="618.202" height="78.1467" fill="#9C9898"/>
<path d="M2016.13 412.029L2376.7 102.4L2441.05 157.658L2155.52 402.846L2080.48 467.287L2016.13 412.029Z" fill="#9C9898"/>
<rect width="15.1085" height="84.8195" transform="matrix(0.758667 -0.651478 0.758667 0.651478 1938.12 478.293)" fill="#9C9898"/>
<rect width="15.1085" height="84.8195" transform="matrix(0.758667 -0.651478 0.758667 0.651478 1981.56 440.995)" fill="#9C9898"/>
<rect width="15.1085" height="67.8556" transform="matrix(-0.758667 -0.651478 0.758667 -0.651478 1952.99 485.201)" fill="#9C9898"/>
<rect width="15.1085" height="67.8556" transform="matrix(-0.758667 -0.651478 0.758667 -0.651478 2005.88 530.615)" fill="#9C9898"/>
<path d="M2340.23 631.999V0.000488281H2438.3V500.466V631.999H2340.23Z" fill="#9C9898"/>
<path d="M926.93 609.425L1050.08 214.747L1147 237.047L1049.48 549.583L1023.85 631.725L926.93 609.425Z" fill="#9C9898"/>
<path d="M1423.11 121.812L1641.43 600.585L1548 632L1375.12 252.871L1329.68 153.228L1423.11 121.812Z" fill="#9C9898"/>
<path d="M1578.79 35.6531L1643.65 177.883L1550.22 209.298L1498.86 96.6695L1485.36 67.0684L1578.79 35.6531Z" fill="#9C9898"/>
<path d="M1706.81 0.000488281L1771.66 142.23L1678.24 173.646L1626.88 61.0169L1613.38 31.4158L1706.81 0.000488281Z" fill="#9C9898"/>
<path d="M1075.29 171.048L1080.06 156.258L1176.76 179.257L1171.99 194.048L1075.29 171.048Z" fill="#9C9898"/>
<rect width="15.5405" height="99.3912" transform="matrix(0.30699 -0.951713 0.972858 0.231401 1088.61 129.795)" fill="#9C9898"/>
<rect width="17.7041" height="74.4309" transform="matrix(-0.972858 -0.231401 0.30699 -0.951713 1087.73 189.939)" fill="#9C9898"/>
<rect width="17.7041" height="74.4309" transform="matrix(-0.972858 -0.231401 0.30699 -0.951713 1167.21 208.841)" fill="#9C9898"/>
<rect width="17.7041" height="49.8932" transform="matrix(-0.972858 -0.231401 0.30699 -0.951713 1134.86 176.001)" fill="#9C9898"/>
<rect width="15.529" height="99.448" transform="matrix(0.297871 -0.954606 0.974536 0.224233 1120.58 35.6224)" fill="#9C9898"/>
<rect width="15.529" height="99.448" transform="matrix(0.297871 -0.954606 0.974536 0.224233 1103.06 91.7968)" fill="#9C9898"/>
<rect width="17.7142" height="74.3757" transform="matrix(-0.974536 -0.224233 0.297871 -0.954606 1120.31 95.7673)" fill="#9C9898"/>
<rect width="17.7142" height="74.3757" transform="matrix(-0.974536 -0.224233 0.297871 -0.954606 1160 104.897)" fill="#9C9898"/>
<path d="M88.3804 607.748L280.222 20.1362L380.955 44.3869L229.04 509.704L189.114 631.999L88.3804 607.748Z" fill="#9C9898"/>
<rect width="323.884" height="97.5072" transform="matrix(0.758667 -0.651478 0.758667 0.651478 444.497 211.006)" fill="#9C9898"/>
<rect x="138.887" y="0.000488281" width="551.946" height="89.8363" fill="#9C9898"/>
<rect x="70.616" y="0.000488281" width="18.6349" height="89.8363" fill="#9C9898"/>
<rect y="0.000488281" width="18.6349" height="89.8363" fill="#9C9898"/>
<rect y="16.0012" width="16.0021" height="89.2516" transform="rotate(-90 0 16.0012)" fill="#9C9898"/>
<rect y="52.7804" width="16.0021" height="89.2516" transform="rotate(-90 0 52.7804)" fill="#9C9898"/>
</svg>
